<?xml version="1.0" encoding="UTF-8"?>
<svg viewBox="0 0 800 400" width="100%" role="img" aria-label="Cascade composition stacked bars for notable operators" style="background:#0d0b08;border:1px solid #332d20"><text x="56" y="26" font-size="13" fill="#8b5cf6" font-weight="700">CASCADE COMPOSITION — 4 NOTABLE OPERATORS</text><text x="776" y="26" font-size="11" fill="#7d7461" text-anchor="end">log-scaled segments · input / output / cacheWrite / cacheRead</text><line x1="56" y1="328" x2="776" y2="328" stroke="#332d20" stroke-width="1" opacity="0.4"></line><line x1="56" y1="258" x2="776" y2="258" stroke="#332d20" stroke-width="1" opacity="0.4"></line><line x1="56" y1="188" x2="776" y2="188" stroke="#332d20" stroke-width="1" opacity="0.4"></line><line x1="56" y1="118" x2="776" y2="118" stroke="#332d20" stroke-width="1" opacity="0.4"></line><line x1="56" y1="48" x2="776" y2="48" stroke="#332d20" stroke-width="1" opacity="0.4"></line><g><rect x="78.5" y="216.68317734083848" width="135" height="111.31682265916153" fill="#c0392b" opacity="0.85"></rect><rect x="78.5" y="151.77357293305113" width="135" height="64.90960440778737" fill="#10b981" opacity="0.85"></rect><rect x="78.5" y="114.25957641266574" width="135" height="37.51399652038539" fill="#3b82f6" opacity="0.85"></rect><rect x="78.5" y="48.000000000000014" width="135" height="66.25957641266572" fill="#8b5cf6" opacity="0.85"></rect><text x="146" y="344" font-size="10" fill="#e0e0d0" text-anchor="middle" font-weight="600">grenadeoftaco…</text><text x="146" y="358" font-size="9" fill="#c4923a" text-anchor="middle">Υ <!-- -->0.0</text></g><g><rect x="258.5" y="280.0658638965067" width="135" height="47.9341361034933" fill="#c0392b" opacity="0.85"></rect><rect x="258.5" y="225.3821670308688" width="135" height="54.683696865637884" fill="#10b981" opacity="0.85"></rect><rect x="258.5" y="163.4449580392615" width="135" height="61.93720899160731" fill="#3b82f6" opacity="0.85"></rect><rect x="258.5" y="91.31513977517342" width="135" height="72.12981826408809" fill="#8b5cf6" opacity="0.85"></rect><text x="326" y="344" font-size="10" fill="#e0e0d0" text-anchor="middle" font-weight="600">DHxWhy</text><text x="326" y="358" font-size="9" fill="#c4923a" text-anchor="middle">Υ <!-- -->27.3K</text></g><g><rect x="438.5" y="276.4473704811627" width="135" height="51.552629518837335" fill="#c0392b" opacity="0.85"></rect><rect x="438.5" y="208.5753856662052" width="135" height="67.8719848149575" fill="#10b981" opacity="0.85"></rect><rect x="438.5" y="176.2427575223859" width="135" height="32.33262814381929" fill="#3b82f6" opacity="0.85"></rect><rect x="438.5" y="105.83023790653546" width="135" height="70.41251961585043" fill="#8b5cf6" opacity="0.85"></rect><text x="506" y="344" font-size="10" fill="#e0e0d0" text-anchor="middle" font-weight="600">limp</text><text x="506" y="358" font-size="9" fill="#c4923a" text-anchor="middle">Υ <!-- -->110.3K</text></g><g><rect x="618.5" y="282.4833076370384" width="135" height="45.5166923629616" fill="#c0392b" opacity="0.85"></rect><rect x="618.5" y="228.73038121668714" width="135" height="53.752926420351294" fill="#10b981" opacity="0.85"></rect><rect x="618.5" y="169.14127734574362" width="135" height="59.589103870943504" fill="#3b82f6" opacity="0.85"></rect><rect x="618.5" y="98.61199049362442" width="135" height="70.5292868521192" fill="#8b5cf6" opacity="0.85"></rect><text x="686" y="344" font-size="10" fill="#e0e0d0" text-anchor="middle" font-weight="600">Maximus Beato</text><text x="686" y="358" font-size="9" fill="#c4923a" text-anchor="middle">Υ <!-- -->58.3K</text></g><g><rect x="56" y="378" width="10" height="10" rx="2" fill="#c0392b"></rect><text x="70" y="387" font-size="10" fill="#e0e0d0" dominant-baseline="middle">Input</text></g><g><rect x="176" y="378" width="10" height="10" rx="2" fill="#10b981"></rect><text x="190" y="387" font-size="10" fill="#e0e0d0" dominant-baseline="middle">Output</text></g><g><rect x="296" y="378" width="10" height="10" rx="2" fill="#3b82f6"></rect><text x="310" y="387" font-size="10" fill="#e0e0d0" dominant-baseline="middle">Cache Write</text></g><g><rect x="416" y="378" width="10" height="10" rx="2" fill="#8b5cf6"></rect><text x="430" y="387" font-size="10" fill="#e0e0d0" dominant-baseline="middle">Cache Read</text></g></svg>