<?xml version="1.0" encoding="UTF-8"?>
<svg viewBox="0 0 800 444" width="100%" role="img" aria-label="Platform adoption horizontal bar chart" style="background:#0d0b08;border:1px solid #332d20"><text x="18" y="24" font-size="13" fill="#e0e0d0" font-weight="700">PLATFORM ADOPTION — OPERATOR COUNT BY PRIMARY MODEL</text><line x1="166.18541767262192" y1="34" x2="166.18541767262192" y2="430" stroke="#c4923a" stroke-width="1.5" stroke-dasharray="5 3"></line><text x="166.18541767262192" y="30" font-size="9" fill="#c4923a" text-anchor="middle" font-weight="600">median</text><g><text x="110" y="53" dominant-baseline="middle" text-anchor="end" font-size="11" fill="#e0e0d0">anthropic</text><rect x="118" y="45" width="594" height="16" fill="#332d20" opacity="0.3" rx="2"></rect><rect x="118" y="45" width="594" height="16" fill="#8b5cf6" opacity="0.85" rx="2"></rect><text x="782" y="53" dominant-baseline="middle" text-anchor="end" font-size="11" font-weight="700" fill="#e0e0d0">2,071</text></g><g><text x="110" y="79" dominant-baseline="middle" text-anchor="end" font-size="11" fill="#e0e0d0">openai</text><rect x="118" y="71" width="594" height="16" fill="#332d20" opacity="0.3" rx="2"></rect><rect x="118" y="71" width="562.450024142926" height="16" fill="#3b82f6" opacity="0.85" rx="2"></rect><text x="782" y="79" dominant-baseline="middle" text-anchor="end" font-size="11" font-weight="700" fill="#e0e0d0">1,961</text></g><g><text x="110" y="105" dominant-baseline="middle" text-anchor="end" font-size="11" fill="#e0e0d0">google</text><rect x="118" y="97" width="594" height="16" fill="#332d20" opacity="0.3" rx="2"></rect><rect x="118" y="97" width="139.68034765813616" height="16" fill="#10b981" opacity="0.85" rx="2"></rect><text x="782" y="105" dominant-baseline="middle" text-anchor="end" font-size="11" font-weight="700" fill="#e0e0d0">487</text></g><g><text x="110" y="131" dominant-baseline="middle" text-anchor="end" font-size="11" fill="#e0e0d0">other</text><rect x="118" y="123" width="594" height="16" fill="#332d20" opacity="0.3" rx="2"></rect><rect x="118" y="123" width="84.89811685176242" height="16" fill="#5b6472" opacity="0.85" rx="2"></rect><text x="782" y="131" dominant-baseline="middle" text-anchor="end" font-size="11" font-weight="700" fill="#e0e0d0">296</text></g><g><text x="110" y="157" dominant-baseline="middle" text-anchor="end" font-size="11" fill="#e0e0d0">zhipu</text><rect x="118" y="149" width="594" height="16" fill="#332d20" opacity="0.3" rx="2"></rect><rect x="118" y="149" width="83.46402704007727" height="16" fill="#c4923a" opacity="0.85" rx="2"></rect><text x="782" y="157" dominant-baseline="middle" text-anchor="end" font-size="11" font-weight="700" fill="#e0e0d0">291</text></g><g><text x="110" y="183" dominant-baseline="middle" text-anchor="end" font-size="11" fill="#e0e0d0">deepseek</text><rect x="118" y="175" width="594" height="16" fill="#332d20" opacity="0.3" rx="2"></rect><rect x="118" y="175" width="58.22404635441816" height="16" fill="#e0a64a" opacity="0.85" rx="2"></rect><text x="782" y="183" dominant-baseline="middle" text-anchor="end" font-size="11" font-weight="700" fill="#e0e0d0">203</text></g><g><text x="110" y="209" dominant-baseline="middle" text-anchor="end" font-size="11" fill="#e0e0d0">minimax</text><rect x="118" y="201" width="594" height="16" fill="#332d20" opacity="0.3" rx="2"></rect><rect x="118" y="201" width="55.64268469338484" height="16" fill="#c0392b" opacity="0.85" rx="2"></rect><text x="782" y="209" dominant-baseline="middle" text-anchor="end" font-size="11" font-weight="700" fill="#e0e0d0">194</text></g><g><text x="110" y="235" dominant-baseline="middle" text-anchor="end" font-size="11" fill="#e0e0d0">moonshot</text><rect x="118" y="227" width="594" height="16" fill="#332d20" opacity="0.3" rx="2"></rect><rect x="118" y="227" width="48.185417672621924" height="16" fill="#7c3aed" opacity="0.85" rx="2"></rect><text x="782" y="235" dominant-baseline="middle" text-anchor="end" font-size="11" font-weight="700" fill="#e0e0d0">168</text></g><g><text x="110" y="261" dominant-baseline="middle" text-anchor="end" font-size="11" fill="#e0e0d0">unknown</text><rect x="118" y="253" width="594" height="16" fill="#332d20" opacity="0.3" rx="2"></rect><rect x="118" y="253" width="44.16996619990343" height="16" fill="#7d7461" opacity="0.85" rx="2"></rect><text x="782" y="261" dominant-baseline="middle" text-anchor="end" font-size="11" font-weight="700" fill="#e0e0d0">154</text></g><g><text x="110" y="287" dominant-baseline="middle" text-anchor="end" font-size="11" fill="#e0e0d0">xiaomi</text><rect x="118" y="279" width="594" height="16" fill="#332d20" opacity="0.3" rx="2"></rect><rect x="118" y="279" width="19.21680347658136" height="16" fill="#f59e0b" opacity="0.85" rx="2"></rect><text x="782" y="287" dominant-baseline="middle" text-anchor="end" font-size="11" font-weight="700" fill="#e0e0d0">67</text></g><g><text x="110" y="313" dominant-baseline="middle" text-anchor="end" font-size="11" fill="#e0e0d0">alibaba</text><rect x="118" y="305" width="594" height="16" fill="#332d20" opacity="0.3" rx="2"></rect><rect x="118" y="305" width="14.054080154514729" height="16" fill="#ef4444" opacity="0.85" rx="2"></rect><text x="782" y="313" dominant-baseline="middle" text-anchor="end" font-size="11" font-weight="700" fill="#e0e0d0">49</text></g><g><text x="110" y="339" dominant-baseline="middle" text-anchor="end" font-size="11" fill="#e0e0d0">xai</text><rect x="118" y="331" width="594" height="16" fill="#332d20" opacity="0.3" rx="2"></rect><rect x="118" y="331" width="12.333172380492515" height="16" fill="#10b981" opacity="0.85" rx="2"></rect><text x="782" y="339" dominant-baseline="middle" text-anchor="end" font-size="11" font-weight="700" fill="#e0e0d0">43</text></g><g><text x="110" y="365" dominant-baseline="middle" text-anchor="end" font-size="11" fill="#e0e0d0">nvidia</text><rect x="118" y="357" width="594" height="16" fill="#332d20" opacity="0.3" rx="2"></rect><rect x="118" y="357" width="2.581361661033317" height="16" fill="#76b900" opacity="0.85" rx="2"></rect><text x="782" y="365" dominant-baseline="middle" text-anchor="end" font-size="11" font-weight="700" fill="#e0e0d0">9</text></g><g><text x="110" y="391" dominant-baseline="middle" text-anchor="end" font-size="11" fill="#e0e0d0">bytedance</text><rect x="118" y="383" width="594" height="16" fill="#332d20" opacity="0.3" rx="2"></rect><rect x="118" y="383" width="2" height="16" fill="#ec4899" opacity="0.85" rx="2"></rect><text x="782" y="391" dominant-baseline="middle" text-anchor="end" font-size="11" font-weight="700" fill="#e0e0d0">3</text></g><g><text x="110" y="417" dominant-baseline="middle" text-anchor="end" font-size="11" fill="#e0e0d0">mistral</text><rect x="118" y="409" width="594" height="16" fill="#332d20" opacity="0.3" rx="2"></rect><rect x="118" y="409" width="2" height="16" fill="#ff6b35" opacity="0.85" rx="2"></rect><text x="782" y="417" dominant-baseline="middle" text-anchor="end" font-size="11" font-weight="700" fill="#e0e0d0">2</text></g></svg>