<?xml version="1.0" encoding="UTF-8"?>
<svg viewBox="0 0 800 380" width="100%" role="img" aria-label="Platform yield quartile stacked bar chart" style="background:#0d0b08;border:1px solid #332d20"><text x="56" y="26" font-size="13" fill="#8b5cf6" font-weight="700">PLATFORM × YIELD QUARTILE — CLAUDE DOMINANCE IN TOP QUARTILE</text><g><line x1="56" y1="324" x2="776" y2="324" stroke="#332d20" stroke-width="1" opacity="0.4"></line><text x="48" y="324" font-size="10" fill="#7d7461" text-anchor="end" dominant-baseline="middle">0</text></g><g><line x1="56" y1="257" x2="776" y2="257" stroke="#332d20" stroke-width="1" opacity="0.4"></line><text x="48" y="257" font-size="10" fill="#7d7461" text-anchor="end" dominant-baseline="middle">102</text></g><g><line x1="56" y1="190" x2="776" y2="190" stroke="#332d20" stroke-width="1" opacity="0.4"></line><text x="48" y="190" font-size="10" fill="#7d7461" text-anchor="end" dominant-baseline="middle">205</text></g><g><line x1="56" y1="123" x2="776" y2="123" stroke="#332d20" stroke-width="1" opacity="0.4"></line><text x="48" y="123" font-size="10" fill="#7d7461" text-anchor="end" dominant-baseline="middle">307</text></g><g><line x1="56" y1="56" x2="776" y2="56" stroke="#332d20" stroke-width="1" opacity="0.4"></line><text x="48" y="56" font-size="10" fill="#7d7461" text-anchor="end" dominant-baseline="middle">409</text></g><g><g><rect x="74" y="271.5794621026895" width="144" height="52.42053789731052" fill="#8b5cf6" opacity="0.85"></rect><text x="146" y="297.78973105134475" font-size="9" fill="#fff" text-anchor="middle" dominant-baseline="middle" font-weight="600">80</text></g><g><rect x="74" y="137.90709046454768" width="144" height="133.6723716381418" fill="#3b82f6" opacity="0.85"></rect><text x="146" y="204.74327628361857" font-size="9" fill="#fff" text-anchor="middle" dominant-baseline="middle" font-weight="600">204</text></g><g><rect x="74" y="121.52567237163814" width="144" height="16.381418092909534" fill="#10b981" opacity="0.85"></rect><text x="146" y="129.7163814180929" font-size="9" fill="#fff" text-anchor="middle" dominant-baseline="middle" font-weight="600">25</text></g><g><rect x="74" y="101.2127139364303" width="144" height="20.312958435207825" fill="#c4923a" opacity="0.85"></rect><text x="146" y="111.36919315403422" font-size="9" fill="#fff" text-anchor="middle" dominant-baseline="middle" font-weight="600">31</text></g><g><rect x="74" y="91.38386308068458" width="144" height="9.828850855745722" fill="#e0a64a" opacity="0.85"></rect></g><g><rect x="74" y="57.965770171149124" width="144" height="33.41809290953545" fill="#5b6472" opacity="0.85"></rect><text x="146" y="74.67481662591685" font-size="9" fill="#fff" text-anchor="middle" dominant-baseline="middle" font-weight="600">51</text></g><text x="146" y="342" font-size="11" fill="#e0e0d0" text-anchor="middle" font-weight="600">Q1 (low)</text></g><g><g><rect x="254" y="286.6503667481663" width="144" height="37.349633251833744" fill="#8b5cf6" opacity="0.85"></rect><text x="326" y="305.32518337408317" font-size="9" fill="#fff" text-anchor="middle" dominant-baseline="middle" font-weight="600">57</text></g><g><rect x="254" y="92.039119804401" width="144" height="194.61124694376528" fill="#3b82f6" opacity="0.85"></rect><text x="326" y="189.34474327628362" font-size="9" fill="#fff" text-anchor="middle" dominant-baseline="middle" font-weight="600">297</text></g><g><rect x="254" y="89.41809290953547" width="144" height="2.6210268948655258" fill="#10b981" opacity="0.85"></rect></g><g><rect x="254" y="81.55501222493889" width="144" height="7.863080684596577" fill="#c4923a" opacity="0.85"></rect></g><g><rect x="254" y="71.72616136919316" width="144" height="9.828850855745722" fill="#e0a64a" opacity="0.85"></rect></g><g><rect x="254" y="57.96577017114915" width="144" height="13.76039119804401" fill="#5b6472" opacity="0.85"></rect></g><text x="326" y="342" font-size="11" fill="#e0e0d0" text-anchor="middle" font-weight="600">Q2</text></g><g><g><rect x="434" y="183.11980440097798" width="144" height="140.88019559902202" fill="#8b5cf6" opacity="0.85"></rect><text x="506" y="253.55990220048898" font-size="9" fill="#fff" text-anchor="middle" dominant-baseline="middle" font-weight="600">215</text></g><g><rect x="434" y="75.00244498777504" width="144" height="108.11735941320295" fill="#3b82f6" opacity="0.85"></rect><text x="506" y="129.0611246943765" font-size="9" fill="#fff" text-anchor="middle" dominant-baseline="middle" font-weight="600">165</text></g><g><rect x="434" y="75.00244498777504" width="144" height="0" fill="#10b981" opacity="0.85"></rect></g><g><rect x="434" y="73.03667481662589" width="144" height="1.9657701711491442" fill="#c4923a" opacity="0.85"></rect></g><g><rect x="434" y="65.8288508557457" width="144" height="7.207823960880195" fill="#e0a64a" opacity="0.85"></rect></g><g><rect x="434" y="57.965770171149124" width="144" height="7.863080684596577" fill="#5b6472" opacity="0.85"></rect></g><text x="506" y="342" font-size="11" fill="#e0e0d0" text-anchor="middle" font-weight="600">Q3</text></g><g><g><rect x="614" y="59.93154034229826" width="144" height="264.06845965770174" fill="#8b5cf6" opacity="0.85"></rect><text x="686" y="191.96577017114913" font-size="9" fill="#fff" text-anchor="middle" dominant-baseline="middle" font-weight="600">403</text></g><g><rect x="614" y="58.6210268948655" width="144" height="1.3105134474327629" fill="#3b82f6" opacity="0.85"></rect></g><g><rect x="614" y="58.6210268948655" width="144" height="0" fill="#10b981" opacity="0.85"></rect></g><g><rect x="614" y="57.96577017114912" width="144" height="0.6552567237163814" fill="#c4923a" opacity="0.85"></rect></g><g><rect x="614" y="57.31051344743273" width="144" height="0.6552567237163814" fill="#e0a64a" opacity="0.85"></rect></g><g><rect x="614" y="55.99999999999997" width="144" height="1.3105134474327629" fill="#5b6472" opacity="0.85"></rect></g><text x="686" y="342" font-size="11" fill="#e0e0d0" text-anchor="middle" font-weight="600">Q4 (high)</text></g><g><rect x="56" y="358" width="10" height="10" rx="2" fill="#8b5cf6"></rect><text x="70" y="367" font-size="10" fill="#e0e0d0" dominant-baseline="middle">anthropic</text></g><g><rect x="166" y="358" width="10" height="10" rx="2" fill="#3b82f6"></rect><text x="180" y="367" font-size="10" fill="#e0e0d0" dominant-baseline="middle">openai</text></g><g><rect x="276" y="358" width="10" height="10" rx="2" fill="#10b981"></rect><text x="290" y="367" font-size="10" fill="#e0e0d0" dominant-baseline="middle">google</text></g><g><rect x="386" y="358" width="10" height="10" rx="2" fill="#c4923a"></rect><text x="400" y="367" font-size="10" fill="#e0e0d0" dominant-baseline="middle">zhipu</text></g><g><rect x="496" y="358" width="10" height="10" rx="2" fill="#e0a64a"></rect><text x="510" y="367" font-size="10" fill="#e0e0d0" dominant-baseline="middle">deepseek</text></g><g><rect x="606" y="358" width="10" height="10" rx="2" fill="#5b6472"></rect><text x="620" y="367" font-size="10" fill="#e0e0d0" dominant-baseline="middle">other</text></g><text x="16" y="190" font-size="11" fill="#e0e0d0" text-anchor="middle" transform="rotate(-90 16 190)">Operator count</text></svg>