<?xml version="1.0" encoding="UTF-8"?>
<svg viewBox="0 0 800 340" width="100%" role="img" aria-label="SNR distribution histogram with median and IQR fences" style="background:#0d0b08;border:1px solid #332d20"><text x="56" y="24" font-size="13" fill="#10b981" font-weight="700">SNR DISTRIBUTION — <!-- -->1627<!-- --> HUMAN OPERATORS</text><text x="776" y="24" font-size="11" fill="#7d7461" text-anchor="end">log scale · 20 buckets</text><g><line x1="56" y1="288" x2="776" y2="288" stroke="#332d20" stroke-width="1" opacity="0.5"></line><text x="48" y="288" font-size="10" fill="#7d7461" text-anchor="end" dominant-baseline="middle">0</text></g><g><line x1="56" y1="227" x2="776" y2="227" stroke="#332d20" stroke-width="1" opacity="0.5"></line><text x="48" y="227" font-size="10" fill="#7d7461" text-anchor="end" dominant-baseline="middle">79</text></g><g><line x1="56" y1="166" x2="776" y2="166" stroke="#332d20" stroke-width="1" opacity="0.5"></line><text x="48" y="166" font-size="10" fill="#7d7461" text-anchor="end" dominant-baseline="middle">158</text></g><g><line x1="56" y1="105" x2="776" y2="105" stroke="#332d20" stroke-width="1" opacity="0.5"></line><text x="48" y="105" font-size="10" fill="#7d7461" text-anchor="end" dominant-baseline="middle">237</text></g><g><line x1="56" y1="44" x2="776" y2="44" stroke="#332d20" stroke-width="1" opacity="0.5"></line><text x="48" y="44" font-size="10" fill="#7d7461" text-anchor="end" dominant-baseline="middle">316</text></g><rect x="57" y="287.2278481012658" width="34" height="0.7721518987341938" fill="#10b981" opacity="0.55" rx="1"></rect><rect x="93" y="288" width="34" height="0" fill="#10b981" opacity="0.55" rx="1"></rect><rect x="129" y="288" width="34" height="0" fill="#10b981" opacity="0.55" rx="1"></rect><rect x="165" y="286.45569620253167" width="34" height="1.5443037974683307" fill="#10b981" opacity="0.55" rx="1"></rect><rect x="201" y="287.2278481012658" width="34" height="0.7721518987341938" fill="#10b981" opacity="0.55" rx="1"></rect><rect x="237" y="282.59493670886076" width="34" height="5.405063291139243" fill="#10b981" opacity="0.55" rx="1"></rect><rect x="273" y="281.0506329113924" width="34" height="6.949367088607573" fill="#10b981" opacity="0.55" rx="1"></rect><rect x="309" y="274.873417721519" width="34" height="13.12658227848101" fill="#10b981" opacity="0.55" rx="1"></rect><rect x="345" y="268.69620253164555" width="34" height="19.303797468354446" fill="#10b981" opacity="0.55" rx="1"></rect><rect x="381" y="235.49367088607596" width="34" height="52.50632911392404" fill="#10b981" opacity="0.55" rx="1"></rect><rect x="417" y="231.63291139240505" width="34" height="56.36708860759495" fill="#10b981" opacity="0.55" rx="1"></rect><rect x="453" y="194.56962025316454" width="34" height="93.43037974683546" fill="#10b981" opacity="0.55" rx="1"></rect><rect x="489" y="126.62025316455697" width="34" height="161.37974683544303" fill="#10b981" opacity="0.55" rx="1"></rect><rect x="525" y="44" width="34" height="244" fill="#c4923a" opacity="0.9" rx="1"></rect><rect x="561" y="107.31645569620255" width="34" height="180.68354430379745" fill="#c4923a" opacity="0.9" rx="1"></rect><rect x="597" y="169.86075949367088" width="34" height="118.13924050632912" fill="#10b981" opacity="0.55" rx="1"></rect><rect x="633" y="201.51898734177215" width="34" height="86.48101265822785" fill="#10b981" opacity="0.55" rx="1"></rect><rect x="669" y="213.1012658227848" width="34" height="74.8987341772152" fill="#10b981" opacity="0.55" rx="1"></rect><rect x="705" y="208.46835443037975" width="34" height="79.53164556962025" fill="#10b981" opacity="0.55" rx="1"></rect><rect x="741" y="227.77215189873417" width="34" height="60.227848101265835" fill="#10b981" opacity="0.55" rx="1"></rect><line x1="56" y1="44" x2="56" y2="288" stroke="#7d7461" stroke-width="1.5" stroke-dasharray="4 4"></line><line x1="674.0323397433116" y1="44" x2="674.0323397433116" y2="288" stroke="#7d7461" stroke-width="1.5" stroke-dasharray="4 4"></line><text x="56" y="38" font-size="9" fill="#7d7461" text-anchor="middle">Q1</text><text x="674.0323397433116" y="38" font-size="9" fill="#7d7461" text-anchor="middle">Q3</text><line x1="551.0846515115691" y1="32" x2="551.0846515115691" y2="288" stroke="#c4923a" stroke-width="2"></line><text x="551.0846515115691" y="28" font-size="11" fill="#c4923a" text-anchor="middle" font-weight="700">median <!-- -->8.37%</text><text x="56" y="306" font-size="10" fill="#7d7461" text-anchor="middle">0.04%</text><text x="236" y="306" font-size="10" fill="#7d7461" text-anchor="middle">0.26%</text><text x="416" y="306" font-size="10" fill="#7d7461" text-anchor="middle">1.89%</text><text x="596" y="306" font-size="10" fill="#7d7461" text-anchor="middle">13.72%</text><text x="776" y="306" font-size="10" fill="#7d7461" text-anchor="middle">99.54%</text><text x="416" y="332" font-size="11" fill="#e0e0d0" text-anchor="middle">Signal-to-Noise Ratio (output / (input + output))</text></svg>