<?xml version="1.0" encoding="UTF-8"?>
<svg viewBox="0 0 800 420" width="100%" role="img" aria-label="Yield quartile box plots for 4 metrics" style="background:#0d0b08;border:1px solid #332d20"><text x="60" y="26" font-size="13" fill="#c4923a" font-weight="700">YIELD QUARTILE BOX PLOTS — 4 METRICS × 4 QUARTILES</text><text x="776" y="26" font-size="11" fill="#7d7461" text-anchor="end">box = IQR · line = median · whiskers = fences</text><line x1="60" y1="364" x2="776" y2="364" stroke="#332d20" stroke-width="1" opacity="0.3"></line><line x1="60" y1="285" x2="776" y2="285" stroke="#332d20" stroke-width="1" opacity="0.3"></line><line x1="60" y1="206" x2="776" y2="206" stroke="#332d20" stroke-width="1" opacity="0.3"></line><line x1="60" y1="127" x2="776" y2="127" stroke="#332d20" stroke-width="1" opacity="0.3"></line><line x1="60" y1="48" x2="776" y2="48" stroke="#332d20" stroke-width="1" opacity="0.3"></line><g><g><line x1="113.5" y1="364" x2="113.5" y2="363.9888112878526" stroke="#c4923a" stroke-width="1" opacity="0.6"></line><line x1="113.5" y1="363.9048959467474" x2="113.5" y2="363.77902293508953" stroke="#c4923a" stroke-width="1" opacity="0.6"></line><line x1="108.5" y1="364" x2="118.5" y2="364" stroke="#c4923a" stroke-width="1" opacity="0.6"></line><line x1="108.5" y1="363.77902293508953" x2="118.5" y2="363.77902293508953" stroke="#c4923a" stroke-width="1" opacity="0.6"></line><rect x="104.5" y="363.9048959467474" width="18" height="0.08391534110523935" fill="#c4923a" fill-opacity="0.25" stroke="#c4923a" stroke-width="1.5"></rect><line x1="104.5" y1="363.9468536173" x2="122.5" y2="363.9468536173" stroke="#c4923a" stroke-width="2"></line></g><g><line x1="137.5" y1="364" x2="137.5" y2="363.11437439199517" stroke="#8b5cf6" stroke-width="1" opacity="0.6"></line><line x1="137.5" y1="361.09792930930655" x2="137.5" y2="358.07326168527356" stroke="#8b5cf6" stroke-width="1" opacity="0.6"></line><line x1="132.5" y1="364" x2="142.5" y2="364" stroke="#8b5cf6" stroke-width="1" opacity="0.6"></line><line x1="132.5" y1="358.07326168527356" x2="142.5" y2="358.07326168527356" stroke="#8b5cf6" stroke-width="1" opacity="0.6"></line><rect x="128.5" y="361.09792930930655" width="18" height="2.0164450826886196" fill="#8b5cf6" fill-opacity="0.25" stroke="#8b5cf6" stroke-width="1.5"></rect><line x1="128.5" y1="362.10615185065086" x2="146.5" y2="362.10615185065086" stroke="#8b5cf6" stroke-width="2"></line></g><g><line x1="161.5" y1="364" x2="161.5" y2="361.9413680781759" stroke="#3b82f6" stroke-width="1" opacity="0.6"></line><line x1="161.5" y1="359.88273615635177" x2="161.5" y2="356.7947882736156" stroke="#3b82f6" stroke-width="1" opacity="0.6"></line><line x1="156.5" y1="364" x2="166.5" y2="364" stroke="#3b82f6" stroke-width="1" opacity="0.6"></line><line x1="156.5" y1="356.7947882736156" x2="166.5" y2="356.7947882736156" stroke="#3b82f6" stroke-width="1" opacity="0.6"></line><rect x="152.5" y="359.88273615635177" width="18" height="2.0586319218241442" fill="#3b82f6" fill-opacity="0.25" stroke="#3b82f6" stroke-width="1.5"></rect><line x1="152.5" y1="360.91205211726384" x2="170.5" y2="360.91205211726384" stroke="#3b82f6" stroke-width="2"></line></g><g><line x1="185.5" y1="359.37560975609756" x2="185.5" y2="253.01463414634145" stroke="#10b981" stroke-width="1" opacity="0.6"></line><line x1="185.5" y1="182.10731707317072" x2="185.5" y2="75.74634146341458" stroke="#10b981" stroke-width="1" opacity="0.6"></line><line x1="180.5" y1="359.37560975609756" x2="190.5" y2="359.37560975609756" stroke="#10b981" stroke-width="1" opacity="0.6"></line><line x1="180.5" y1="75.74634146341458" x2="190.5" y2="75.74634146341458" stroke="#10b981" stroke-width="1" opacity="0.6"></line><rect x="176.5" y="182.10731707317072" width="18" height="70.90731707317073" fill="#10b981" fill-opacity="0.25" stroke="#10b981" stroke-width="1.5"></rect><line x1="176.5" y1="217.5609756097561" x2="194.5" y2="217.5609756097561" stroke="#10b981" stroke-width="2"></line></g><text x="149.5" y="382" font-size="11" fill="#e0e0d0" text-anchor="middle" font-weight="600">Q1 (low)</text></g><g><g><line x1="292.5" y1="364" x2="292.5" y2="363.770631400979" stroke="#c4923a" stroke-width="1" opacity="0.6"></line><line x1="292.5" y1="363.594409184658" x2="292.5" y2="363.3300758601765" stroke="#c4923a" stroke-width="1" opacity="0.6"></line><line x1="287.5" y1="364" x2="297.5" y2="364" stroke="#c4923a" stroke-width="1" opacity="0.6"></line><line x1="287.5" y1="363.3300758601765" x2="297.5" y2="363.3300758601765" stroke="#c4923a" stroke-width="1" opacity="0.6"></line><rect x="283.5" y="363.594409184658" width="18" height="0.17622221632103674" fill="#c4923a" fill-opacity="0.25" stroke="#c4923a" stroke-width="1.5"></rect><line x1="283.5" y1="363.68252029281854" x2="301.5" y2="363.68252029281854" stroke="#c4923a" stroke-width="2"></line></g><g><line x1="316.5" y1="362.24338722379207" x2="316.5" y2="359.4328067818594" stroke="#8b5cf6" stroke-width="1" opacity="0.6"></line><line x1="316.5" y1="357.55908648723766" x2="316.5" y2="354.748506045305" stroke="#8b5cf6" stroke-width="1" opacity="0.6"></line><line x1="311.5" y1="362.24338722379207" x2="321.5" y2="362.24338722379207" stroke="#8b5cf6" stroke-width="1" opacity="0.6"></line><line x1="311.5" y1="354.748506045305" x2="321.5" y2="354.748506045305" stroke="#8b5cf6" stroke-width="1" opacity="0.6"></line><rect x="307.5" y="357.55908648723766" width="18" height="1.8737202946217622" fill="#8b5cf6" fill-opacity="0.25" stroke="#8b5cf6" stroke-width="1.5"></rect><line x1="307.5" y1="358.49594663454855" x2="325.5" y2="358.49594663454855" stroke="#8b5cf6" stroke-width="2"></line></g><g><line x1="340.5" y1="362.45602605863195" x2="340.5" y2="357.8241042345277" stroke="#3b82f6" stroke-width="1" opacity="0.6"></line><line x1="340.5" y1="354.7361563517915" x2="340.5" y2="350.1042345276873" stroke="#3b82f6" stroke-width="1" opacity="0.6"></line><line x1="335.5" y1="362.45602605863195" x2="345.5" y2="362.45602605863195" stroke="#3b82f6" stroke-width="1" opacity="0.6"></line><line x1="335.5" y1="350.1042345276873" x2="345.5" y2="350.1042345276873" stroke="#3b82f6" stroke-width="1" opacity="0.6"></line><rect x="331.5" y="354.7361563517915" width="18" height="3.0879478827361595" fill="#3b82f6" fill-opacity="0.25" stroke="#3b82f6" stroke-width="1.5"></rect><line x1="331.5" y1="356.28013029315963" x2="349.5" y2="356.28013029315963" stroke="#3b82f6" stroke-width="2"></line></g><g><line x1="364.5" y1="342.41951219512197" x2="364.5" y2="249.93170731707318" stroke="#10b981" stroke-width="1" opacity="0.6"></line><line x1="364.5" y1="188.2731707317073" x2="364.5" y2="95.7853658536585" stroke="#10b981" stroke-width="1" opacity="0.6"></line><line x1="359.5" y1="342.41951219512197" x2="369.5" y2="342.41951219512197" stroke="#10b981" stroke-width="1" opacity="0.6"></line><line x1="359.5" y1="95.7853658536585" x2="369.5" y2="95.7853658536585" stroke="#10b981" stroke-width="1" opacity="0.6"></line><rect x="355.5" y="188.2731707317073" width="18" height="61.65853658536588" fill="#10b981" fill-opacity="0.25" stroke="#10b981" stroke-width="1.5"></rect><line x1="355.5" y1="219.1024390243902" x2="373.5" y2="219.1024390243902" stroke="#10b981" stroke-width="2"></line></g><text x="328.5" y="382" font-size="11" fill="#e0e0d0" text-anchor="middle" font-weight="600">Q2</text></g><g><g><line x1="471.5" y1="364" x2="471.5" y2="363.2643421763107" stroke="#c4923a" stroke-width="1" opacity="0.6"></line><line x1="471.5" y1="362.2321834807163" x2="471.5" y2="360.6839454373246" stroke="#c4923a" stroke-width="1" opacity="0.6"></line><line x1="466.5" y1="364" x2="476.5" y2="364" stroke="#c4923a" stroke-width="1" opacity="0.6"></line><line x1="466.5" y1="360.6839454373246" x2="476.5" y2="360.6839454373246" stroke="#c4923a" stroke-width="1" opacity="0.6"></line><rect x="462.5" y="362.2321834807163" width="18" height="1.0321586955944326" fill="#c4923a" fill-opacity="0.25" stroke="#c4923a" stroke-width="1.5"></rect><line x1="462.5" y1="362.74826282851353" x2="480.5" y2="362.74826282851353" stroke="#c4923a" stroke-width="2"></line></g><g><line x1="495.5" y1="363.2936952795664" x2="495.5" y2="355.2242553388613" stroke="#8b5cf6" stroke-width="1" opacity="0.6"></line><line x1="495.5" y1="349.8446287117246" x2="495.5" y2="341.7751887710196" stroke="#8b5cf6" stroke-width="1" opacity="0.6"></line><line x1="490.5" y1="363.2936952795664" x2="500.5" y2="363.2936952795664" stroke="#8b5cf6" stroke-width="1" opacity="0.6"></line><line x1="490.5" y1="341.7751887710196" x2="500.5" y2="341.7751887710196" stroke="#8b5cf6" stroke-width="1" opacity="0.6"></line><rect x="486.5" y="349.8446287117246" width="18" height="5.379626627136702" fill="#8b5cf6" fill-opacity="0.25" stroke="#8b5cf6" stroke-width="1.5"></rect><line x1="486.5" y1="352.534442025293" x2="504.5" y2="352.534442025293" stroke="#8b5cf6" stroke-width="2"></line></g><g><line x1="519.5" y1="363.48534201954396" x2="519.5" y2="352.67752442996743" stroke="#3b82f6" stroke-width="1" opacity="0.6"></line><line x1="519.5" y1="345.47231270358304" x2="519.5" y2="334.6644951140065" stroke="#3b82f6" stroke-width="1" opacity="0.6"></line><line x1="514.5" y1="363.48534201954396" x2="524.5" y2="363.48534201954396" stroke="#3b82f6" stroke-width="1" opacity="0.6"></line><line x1="514.5" y1="334.6644951140065" x2="524.5" y2="334.6644951140065" stroke="#3b82f6" stroke-width="1" opacity="0.6"></line><rect x="510.5" y="345.47231270358304" width="18" height="7.205211726384391" fill="#3b82f6" fill-opacity="0.25" stroke="#3b82f6" stroke-width="1.5"></rect><line x1="510.5" y1="349.07491856677524" x2="528.5" y2="349.07491856677524" stroke="#3b82f6" stroke-width="2"></line></g><g><line x1="543.5" y1="356.2926829268293" x2="543.5" y2="259.18048780487806" stroke="#10b981" stroke-width="1" opacity="0.6"></line><line x1="543.5" y1="194.4390243902439" x2="543.5" y2="97.32682926829267" stroke="#10b981" stroke-width="1" opacity="0.6"></line><line x1="538.5" y1="356.2926829268293" x2="548.5" y2="356.2926829268293" stroke="#10b981" stroke-width="1" opacity="0.6"></line><line x1="538.5" y1="97.32682926829267" x2="548.5" y2="97.32682926829267" stroke="#10b981" stroke-width="1" opacity="0.6"></line><rect x="534.5" y="194.4390243902439" width="18" height="64.74146341463415" fill="#10b981" fill-opacity="0.25" stroke="#10b981" stroke-width="1.5"></rect><line x1="534.5" y1="226.80975609756095" x2="552.5" y2="226.80975609756095" stroke="#10b981" stroke-width="2"></line></g><text x="507.5" y="382" font-size="11" fill="#e0e0d0" text-anchor="middle" font-weight="600">Q3</text></g><g><g><line x1="650.5" y1="364" x2="650.5" y2="355.8574147347549" stroke="#c4923a" stroke-width="1" opacity="0.6"></line><line x1="650.5" y1="232.71444884085295" x2="650.5" y2="48" stroke="#c4923a" stroke-width="1" opacity="0.6"></line><line x1="645.5" y1="364" x2="655.5" y2="364" stroke="#c4923a" stroke-width="1" opacity="0.6"></line><line x1="645.5" y1="48" x2="655.5" y2="48" stroke="#c4923a" stroke-width="1" opacity="0.6"></line><rect x="641.5" y="232.71444884085295" width="18" height="123.14296589390196" fill="#c4923a" fill-opacity="0.25" stroke="#c4923a" stroke-width="1.5"></rect><line x1="641.5" y1="294.285931787804" x2="659.5" y2="294.285931787804" stroke="#c4923a" stroke-width="2"></line></g><g><line x1="674.5" y1="364" x2="674.5" y2="335.0049103627183" stroke="#8b5cf6" stroke-width="1" opacity="0.6"></line><line x1="674.5" y1="220.20294621763097" x2="674.5" y2="48" stroke="#8b5cf6" stroke-width="1" opacity="0.6"></line><line x1="669.5" y1="364" x2="679.5" y2="364" stroke="#8b5cf6" stroke-width="1" opacity="0.6"></line><line x1="669.5" y1="48" x2="679.5" y2="48" stroke="#8b5cf6" stroke-width="1" opacity="0.6"></line><rect x="665.5" y="220.20294621763097" width="18" height="114.80196414508734" fill="#8b5cf6" fill-opacity="0.25" stroke="#8b5cf6" stroke-width="1.5"></rect><line x1="665.5" y1="277.6039282901746" x2="683.5" y2="277.6039282901746" stroke="#8b5cf6" stroke-width="2"></line></g><g><line x1="698.5" y1="364" x2="698.5" y2="325.91530944625407" stroke="#3b82f6" stroke-width="1" opacity="0.6"></line><line x1="698.5" y1="214.74918566775247" x2="698.5" y2="48" stroke="#3b82f6" stroke-width="1" opacity="0.6"></line><line x1="693.5" y1="364" x2="703.5" y2="364" stroke="#3b82f6" stroke-width="1" opacity="0.6"></line><line x1="693.5" y1="48" x2="703.5" y2="48" stroke="#3b82f6" stroke-width="1" opacity="0.6"></line><rect x="689.5" y="214.74918566775247" width="18" height="111.1661237785016" fill="#3b82f6" fill-opacity="0.25" stroke="#3b82f6" stroke-width="1.5"></rect><line x1="689.5" y1="270.33224755700326" x2="707.5" y2="270.33224755700326" stroke="#3b82f6" stroke-width="2"></line></g><g><line x1="722.5" y1="364" x2="722.5" y2="271.5121951219512" stroke="#10b981" stroke-width="1" opacity="0.6"></line><line x1="722.5" y1="182.10731707317072" x2="722.5" y2="48" stroke="#10b981" stroke-width="1" opacity="0.6"></line><line x1="717.5" y1="364" x2="727.5" y2="364" stroke="#10b981" stroke-width="1" opacity="0.6"></line><line x1="717.5" y1="48" x2="727.5" y2="48" stroke="#10b981" stroke-width="1" opacity="0.6"></line><rect x="713.5" y="182.10731707317072" width="18" height="89.40487804878049" fill="#10b981" fill-opacity="0.25" stroke="#10b981" stroke-width="1.5"></rect><line x1="713.5" y1="226.80975609756095" x2="731.5" y2="226.80975609756095" stroke="#10b981" stroke-width="2"></line></g><text x="686.5" y="382" font-size="11" fill="#e0e0d0" text-anchor="middle" font-weight="600">Q4 (high)</text></g><g><rect x="60" y="398" width="10" height="10" rx="2" fill="#c4923a" fill-opacity="0.25" stroke="#c4923a" stroke-width="1.5"></rect><text x="74" y="407" font-size="10" fill="#e0e0d0" dominant-baseline="middle">Υ Yield</text></g><g><rect x="180" y="398" width="10" height="10" rx="2" fill="#8b5cf6" fill-opacity="0.25" stroke="#8b5cf6" stroke-width="1.5"></rect><text x="194" y="407" font-size="10" fill="#e0e0d0" dominant-baseline="middle">Leverage</text></g><g><rect x="300" y="398" width="10" height="10" rx="2" fill="#3b82f6" fill-opacity="0.25" stroke="#3b82f6" stroke-width="1.5"></rect><text x="314" y="407" font-size="10" fill="#e0e0d0" dominant-baseline="middle">Velocity</text></g><g><rect x="420" y="398" width="10" height="10" rx="2" fill="#10b981" fill-opacity="0.25" stroke="#10b981" stroke-width="1.5"></rect><text x="434" y="407" font-size="10" fill="#e0e0d0" dominant-baseline="middle">SNR</text></g><text x="16" y="206" font-size="11" fill="#e0e0d0" text-anchor="middle" transform="rotate(-90 16 206)">Normalized value (per-metric scale)</text></svg>